<svg width="243" height="243" viewBox="0 0 243 243" fill="none" xmlns="http://www.w3.org/2000/svg">
<g filter="url(#filter0_d_41_262)">
<circle cx="117" cy="117" r="117" fill="black"/>
</g>
<g filter="url(#filter1_dd_41_262)">
<circle cx="117" cy="117" r="75" fill="#D9D9D9"/>
</g>
<path d="M75.2244 197.232L57.9134 209.804L55.5512 208.249L60.5371 187.564L62.8291 189.073L61.2038 195.31L67.8693 199.698L73.0728 195.816L75.2244 197.232ZM60.3878 205.265L66.1218 200.995L60.6491 197.392L58.8208 204.234L57.9927 207.074L58.0395 207.105C58.9601 206.37 59.7428 205.757 60.3878 205.265Z" fill="white"/>
<path d="M51.8815 179.062L41.5959 197.524L39.7722 195.512L47.5996 181.967L49.0827 179.601L49.0451 179.559C47.9389 180.117 47.0935 180.519 46.5091 180.763L32.1013 187.046L30.334 185.096L50.0202 177.008L51.8815 179.062Z" fill="white"/>
<path d="M42.3261 167.792L21.1002 170.414L19.7879 167.909L34.1667 152.215L35.44 154.646L30.9976 159.32L34.7005 166.389L41.1308 165.51L42.3261 167.792ZM25.4623 167.639L32.5445 166.677L29.5042 160.874L24.5918 165.977L22.4919 168.063L22.5179 168.113C23.6787 167.915 24.6602 167.757 25.4623 167.639Z" fill="white"/>
<path d="M32.2046 145.606L12.9764 151.181L12.2618 148.764L31.49 143.19L32.2046 145.606Z" fill="white"/>
<path d="M29.3605 134.855L9.45349 136.979L9.18085 134.474L26.777 132.597L25.641 122.158L27.9519 121.912L29.3605 134.855Z" fill="white"/>
<path d="M27.807 116.756L8.96343 106.798L9.34692 103.996L30.1915 99.3347L29.8194 102.053L23.481 103.35L22.3989 111.256L28.1563 114.204L27.807 116.756ZM14.1342 107.011L20.4718 110.263L21.3603 103.772L14.3886 105.153L11.4642 105.664L11.4566 105.72C12.5186 106.22 13.4111 106.651 14.1342 107.011Z" fill="white"/>
<path d="M32.1382 92.9735L13.6168 85.3736L16.8924 77.5474C17.7068 75.6017 18.8619 74.3405 20.3578 73.7639C21.5183 73.3119 22.7375 73.3481 24.0154 73.8725C25.9841 74.6803 26.8649 76.2019 26.6578 78.4372L26.7355 78.4691C27.4558 77.4734 28.3486 76.7906 29.414 76.4207C30.4622 76.0437 31.582 76.0997 32.7736 76.5886C34.1897 77.1697 35.1853 78.1028 35.7603 79.3879C36.4806 80.9546 36.4227 82.7366 35.5867 84.7341L32.1382 92.9735ZM31.0129 89.7879L33.4453 83.9764C33.9786 82.7022 34.0713 81.6104 33.7235 80.7009C33.367 79.909 32.7656 79.3394 31.9194 78.9922C30.7969 78.5316 29.7943 78.5338 28.9117 78.9989C28.029 79.4639 27.3426 80.2819 26.8526 81.4528L24.4851 87.1094L31.0129 89.7879ZM22.5164 86.3016L24.7001 81.0841C25.1685 79.9649 25.2684 78.9768 24.9997 78.1201C24.731 77.2633 24.1218 76.64 23.172 76.2503C22.274 75.8818 21.452 75.8875 20.7062 76.2675C19.9503 76.6231 19.3561 77.3175 18.9237 78.3507L16.6102 83.8781L22.5164 86.3016Z" fill="white"/>
<path d="M41.965 72.5963L25.7905 60.7986L27.2947 58.7768L41.5916 69.205L47.8592 60.7808L49.7368 62.1503L41.965 72.5963Z" fill="white"/>
<path d="M54.4704 57.2793L41.5103 42.0203L52.3765 32.9723L53.8085 34.6583L44.8788 42.0938L48.9753 46.9169L57.0873 40.1623L58.4649 41.7842L50.3529 48.5388L54.9025 53.8955L64.0903 46.245L65.5948 48.0164L54.4704 57.2793Z" fill="white"/>
<path d="M80.2798 39.9256L73.3621 21.1387L86.1353 16.5277L86.8996 18.6034L76.4967 22.3588L78.6543 28.2182L87.319 25.0903L88.0543 27.0872L79.3896 30.2151L82.6501 39.0699L80.2798 39.9256Z" fill="white"/>
<path d="M115.947 29.6892C114.35 31.7927 112.073 32.9708 109.116 33.2234C106.159 33.476 103.702 32.7023 101.747 30.9022C99.8095 29.1005 98.7089 26.6841 98.4448 23.6529C98.1807 20.6217 98.847 18.0544 100.444 15.9508C102.059 13.8457 104.345 12.6668 107.303 12.4142C110.26 12.1616 112.707 12.9362 114.644 14.7378C116.6 16.5379 117.71 18.9535 117.974 21.9847C118.238 25.0159 117.562 27.5841 115.947 29.6892ZM103.424 29.1852C104.821 30.602 106.655 31.2136 108.924 31.0197C111.193 30.8259 112.893 29.9125 114.025 28.2796C115.157 26.6467 115.618 24.6215 115.407 22.204C115.196 19.7865 114.392 17.8693 112.995 16.4524C111.595 15.017 109.761 14.3962 107.492 14.59C105.223 14.7838 103.524 15.7065 102.393 17.358C101.261 18.9909 100.801 21.0161 101.011 23.4336C101.222 25.8512 102.026 27.7683 103.424 29.1852Z" fill="white"/>
<path d="M125.674 32.6531L129.457 12.9937L138.647 14.7272C140.371 15.0525 141.67 15.8103 142.543 17.0009C143.435 18.1949 143.726 19.5984 143.415 21.2115C142.932 23.7228 141.483 25.1305 139.067 25.4346L139.051 25.5171C139.957 26.0488 140.539 26.7285 140.798 27.5561C141.078 28.3689 141.12 29.5355 140.923 31.0559C140.623 33.6018 140.656 35.0612 141.021 35.434L141 35.544L138.331 35.0406C138.161 34.8375 138.081 34.4616 138.092 33.9127C138.121 33.3673 138.244 32.2318 138.462 30.5063C138.645 29.0593 138.482 27.9836 137.971 27.2794C137.478 26.5786 136.563 26.102 135.224 25.8494L129.748 24.8165L128.151 33.1202L125.674 32.6531ZM131.52 15.6055L130.134 22.8094L135.968 23.9097C137.325 24.1657 138.412 24.0479 139.229 23.5561C140.05 23.046 140.569 22.2227 140.788 21.0862C141.024 19.8581 140.887 18.8919 140.376 18.1877C139.865 17.4835 138.904 16.9982 137.491 16.7317L131.52 15.6055Z" fill="white"/>
<path d="M156.514 41.6896L166.938 24.5973L178.593 31.5661L177.442 33.4546L167.949 27.779L164.698 33.1099L172.604 37.8372L171.496 39.654L163.59 34.9267L158.677 42.9827L156.514 41.6896Z" fill="white"/>
<path d="M173.936 53.0397L188.236 39.0287L194.847 45.6436C196.087 46.8848 196.73 48.241 196.775 49.7122C196.834 51.1966 196.276 52.5137 195.103 53.6633C193.276 55.453 191.278 55.7906 189.109 54.6759L189.049 54.7347C189.495 55.6827 189.59 56.5697 189.333 57.3958C189.103 58.222 188.475 59.2038 187.447 60.341C185.753 62.2628 184.95 63.48 185.041 63.9927L184.961 64.0711L183.041 62.15C183.015 61.8872 183.163 61.5334 183.484 61.0885C183.818 60.6568 184.565 59.7939 185.726 58.4998C186.7 57.4148 187.176 56.4388 187.154 55.5718C187.145 54.7181 186.659 53.8093 185.696 52.8454L181.757 48.9042L175.717 54.8221L173.936 53.0397ZM188.457 42.3397L183.217 47.4737L187.413 51.6724C188.39 52.6495 189.355 53.1668 190.31 53.2243C191.278 53.2688 192.176 52.8861 193.002 52.0762C193.896 51.2009 194.331 50.3298 194.309 49.4628C194.287 48.5958 193.768 47.654 192.752 46.6374L188.457 42.3397Z" fill="white"/>
<path d="M189.238 69.7744L206.581 59.7741L213.75 71.9623L211.834 73.0672L205.943 63.0512L200.461 66.2121L205.812 75.311L203.969 76.374L198.617 67.2751L192.529 70.7857L198.59 81.0914L196.577 82.2522L189.238 69.7744Z" fill="white"/>
<path d="M199.403 88.924L218.658 83.4433L222.601 97.0225L220.473 97.6281L217.233 86.4689L211.147 88.2013L214.09 98.3386L212.044 98.9212L209.1 88.7838L202.341 90.7078L205.674 102.19L203.439 102.826L199.403 88.924Z" fill="white"/>
<path d="M204.429 109.997L224.43 109.14L224.54 111.657L206.86 112.415L207.319 122.905L204.997 123.004L204.429 109.997Z" fill="white"/>
<path d="M204.8 128.156L222.966 139.288L222.402 142.059L201.295 145.387L201.842 142.698L208.252 141.807L209.843 133.987L204.287 130.68L204.8 128.156ZM217.818 138.747L211.703 135.1L210.396 141.521L217.444 140.585L220.396 140.26L220.407 140.205C219.38 139.639 218.517 139.153 217.818 138.747Z" fill="white"/>
<path d="M198.977 151.615L216.93 160.474L215.734 162.85L199.151 164.845L196.186 165.006L196.161 165.056L210.951 172.354L209.893 174.455L191.94 165.596L193.098 163.295L209.732 161.261L212.634 161.039L212.659 160.989L197.919 153.716L198.977 151.615Z" fill="white"/>
<path d="M181.306 178.251C183.198 176.162 185.447 175.126 188.052 175.143C190.656 175.16 193.103 176.185 195.391 178.218C197.652 180.226 198.945 182.511 199.27 185.071C199.596 187.658 198.781 190.03 196.826 192.188C195.297 193.876 193.622 194.848 191.803 195.104C189.984 195.361 188.269 194.96 186.657 193.903L188.312 192.077C189.423 192.74 190.598 192.96 191.834 192.735C193.058 192.524 194.19 191.844 195.231 190.696C196.672 189.105 197.221 187.346 196.877 185.418C196.548 183.502 195.476 181.739 193.662 180.127C191.819 178.49 189.913 177.634 187.943 177.556C185.974 177.505 184.294 178.247 182.903 179.783C181.7 181.11 181.163 182.481 181.293 183.895C181.41 185.322 182.018 186.611 183.116 187.762L181.443 189.608C180.716 188.937 180.112 188.089 179.631 187.063C179.152 186.063 178.892 185.07 178.852 184.086C178.771 182.091 179.589 180.146 181.306 178.251Z" fill="white"/>
<path d="M170.659 188.78L181.73 205.461L169.878 213.173L168.654 211.33L178.394 204.992L174.895 199.72L166.047 205.477L164.87 203.704L173.718 197.947L169.832 192.091L159.811 198.611L158.526 196.675L170.659 188.78Z" fill="white"/>
<defs>
<filter id="filter0_d_41_262" x="0" y="0" width="243" height="243" filterUnits="userSpaceOnUse" color-interpolation-filters="sRGB">
<feFlood flood-opacity="0" result="BackgroundImageFix"/>
<feColorMatrix in="SourceAlpha" type="matrix" values="0 0 0 0 0 0 0 0 0 0 0 0 0 0 0 0 0 0 127 0" result="hardAlpha"/>
<feOffset dx="5" dy="5"/>
<feGaussianBlur stdDeviation="2"/>
<feComposite in2="hardAlpha" operator="out"/>
<feColorMatrix type="matrix" values="0 0 0 0 0 0 0 0 0 0 0 0 0 0 0 0 0 0 0.25 0"/>
<feBlend mode="normal" in2="BackgroundImageFix" result="effect1_dropShadow_41_262"/>
<feBlend mode="normal" in="SourceGraphic" in2="effect1_dropShadow_41_262" result="shape"/>
</filter>
<filter id="filter1_dd_41_262" x="27" y="27" width="190" height="190" filterUnits="userSpaceOnUse" color-interpolation-filters="sRGB">
<feFlood flood-opacity="0" result="BackgroundImageFix"/>
<feColorMatrix in="SourceAlpha" type="matrix" values="0 0 0 0 0 0 0 0 0 0 0 0 0 0 0 0 0 0 127 0" result="hardAlpha"/>
<feOffset dx="-5" dy="-5"/>
<feGaussianBlur stdDeviation="2"/>
<feComposite in2="hardAlpha" operator="out"/>
<feColorMatrix type="matrix" values="0 0 0 0 0 0 0 0 0 0 0 0 0 0 0 0 0 0 0.25 0"/>
<feBlend mode="normal" in2="BackgroundImageFix" result="effect1_dropShadow_41_262"/>
<feColorMatrix in="SourceAlpha" type="matrix" values="0 0 0 0 0 0 0 0 0 0 0 0 0 0 0 0 0 0 127 0" result="hardAlpha"/>
<feOffset dx="5" dy="5"/>
<feGaussianBlur stdDeviation="10"/>
<feComposite in2="hardAlpha" operator="out"/>
<feColorMatrix type="matrix" values="0 0 0 0 0 0 0 0 0 0 0 0 0 0 0 0 0 0 0.75 0"/>
<feBlend mode="normal" in2="effect1_dropShadow_41_262" result="effect2_dropShadow_41_262"/>
<feBlend mode="normal" in="SourceGraphic" in2="effect2_dropShadow_41_262" result="shape"/>
</filter>
</defs>
</svg>
