<svg width="248" height="248" viewBox="0 0 248 248" fill="none" xmlns="http://www.w3.org/2000/svg">
<g filter="url(#filter0_d_40_186)">
<circle cx="119.5" cy="119.5" r="119.5" fill="black"/>
</g>
<g filter="url(#filter1_dd_40_186)">
<circle cx="120" cy="120" r="83" fill="#D9D9D9"/>
</g>
<path d="M76.4095 208.847C77.2369 209.258 77.5117 209.911 77.2339 210.805L77.25 210.813C78.3708 210.271 79.5114 210.289 80.6719 210.866C81.4992 211.277 82.0785 211.813 82.4095 212.474C82.7406 213.134 82.7213 213.842 82.3516 214.596C82.1615 214.984 81.9387 215.288 81.6831 215.51C81.4116 215.737 81.1369 215.888 80.859 215.964C80.5758 216.051 80.2359 216.077 79.8395 216.04C79.427 216.009 79.0491 215.949 78.7058 215.859C78.3572 215.779 77.9227 215.657 77.4022 215.492C77.0694 215.38 76.8333 215.303 76.6938 215.26C76.5383 215.223 76.3399 215.178 76.0986 215.125C75.852 215.083 75.6672 215.078 75.5443 215.111C75.4214 215.143 75.2906 215.206 75.152 215.298C75.0134 215.39 74.9019 215.522 74.8174 215.694C74.585 216.168 74.5746 216.612 74.7862 217.025C74.9818 217.444 75.3751 217.801 75.9661 218.095C77.3092 218.762 78.3033 218.493 78.9483 217.286L80.2055 217.911C79.7668 218.752 79.1413 219.291 78.329 219.531C77.506 219.765 76.5627 219.617 75.4989 219.089C73.4466 218.068 72.8536 216.674 73.7197 214.907L75.6686 210.931C75.8482 210.565 75.9159 210.277 75.8716 210.067C75.8166 209.852 75.5987 209.697 75.2179 209.601L75.1695 209.577L75.637 208.624C75.8941 208.644 76.1516 208.719 76.4095 208.847ZM79.8906 211.724C79.0847 211.323 78.3479 211.245 77.6803 211.489C77.0074 211.744 76.5336 212.152 76.2589 212.712L75.5618 214.134C76.0808 214.084 76.8151 214.195 77.7647 214.466C78.1187 214.562 78.3976 214.633 78.6014 214.681C78.7999 214.739 79.0412 214.779 79.3251 214.8C79.6037 214.831 79.8285 214.822 79.9996 214.773C80.1706 214.724 80.3439 214.629 80.5197 214.489C80.6901 214.359 80.8335 214.176 80.9497 213.939C81.3933 213.034 81.0403 212.295 79.8906 211.724Z" fill="#D9D9D9"/>
<path d="M63.4331 200.803L60.2733 210.165L59.0443 209.195L61.1596 203.342L61.8846 201.415L61.8563 201.392C61.2056 201.857 60.6438 202.247 60.1708 202.561L55.0043 206.004L53.8177 205.067L62.1617 199.799L63.4331 200.803Z" fill="#D9D9D9"/>
<path d="M46.2913 184.088C46.8837 184.797 46.8736 185.505 46.2609 186.213L46.2725 186.227C47.5155 186.18 48.5525 186.654 49.3833 187.649C49.9757 188.358 50.291 189.082 50.3292 189.82C50.3674 190.558 50.0661 191.199 49.4253 191.742C49.0957 192.021 48.7696 192.211 48.4469 192.312C48.1074 192.411 47.7952 192.439 47.5102 192.398C47.2161 192.364 46.8949 192.251 46.5465 192.058C46.1813 191.864 45.8597 191.657 45.5817 191.437C45.2945 191.224 44.9458 190.937 44.5355 190.577C44.2758 190.341 44.0907 190.176 43.98 190.081C43.8526 189.984 43.689 189.863 43.4894 189.718C43.2806 189.58 43.1134 189.502 42.9877 189.482C42.8621 189.463 42.7174 189.468 42.5537 189.496C42.39 189.525 42.2349 189.601 42.0884 189.725C41.6856 190.067 41.4982 190.469 41.5261 190.933C41.5372 191.396 41.7542 191.88 42.1774 192.387C43.139 193.538 44.157 193.69 45.2315 192.842L46.1315 193.92C45.3929 194.514 44.6038 194.758 43.7644 194.652C42.9172 194.536 42.1128 194.022 41.3512 193.11C39.8819 191.351 39.8979 189.836 41.3993 188.563L44.7775 185.701C45.0888 185.437 45.2662 185.2 45.3097 184.99C45.3456 184.771 45.2084 184.541 44.8981 184.301L44.8635 184.26L45.6737 183.573C45.9008 183.695 46.1067 183.867 46.2913 184.088ZM48.3242 188.122C47.7472 187.431 47.1042 187.064 46.3951 187.02C45.6769 186.983 45.0797 187.167 44.6037 187.57L43.3952 188.594C43.8904 188.757 44.5183 189.153 45.2787 189.782C45.5644 190.012 45.791 190.19 45.9584 190.315C46.1166 190.449 46.3216 190.582 46.5732 190.714C46.8157 190.855 47.025 190.937 47.2012 190.961C47.3774 190.984 47.5741 190.967 47.7912 190.909C47.9993 190.859 48.204 190.748 48.4054 190.577C49.1744 189.926 49.1473 189.107 48.3242 188.122Z" fill="#D9D9D9"/>
<path d="M38.8414 173.55L30.8204 178.269L30.089 177.008L38.1099 172.289L38.8414 173.55ZM29.3 179.163L27.7486 180.076L27.0172 178.815L28.5686 177.902L29.3 179.163Z" fill="#D9D9D9"/>
<path d="M33.2002 162.647L21.3619 167.695L20.7968 166.351L32.6352 161.302L33.2002 162.647Z" fill="#D9D9D9"/>
<path d="M27.277 143.978C27.486 144.878 27.157 145.504 26.2902 145.856L26.2943 145.874C27.4258 146.396 28.1381 147.289 28.4312 148.551C28.6402 149.451 28.5951 150.239 28.2959 150.913C27.9968 151.588 27.4383 152.021 26.6207 152.214C26.2002 152.313 25.8232 152.334 25.4897 152.277C25.1417 152.211 24.8499 152.095 24.6142 151.928C24.3667 151.765 24.1309 151.518 23.9066 151.189C23.6679 150.851 23.4741 150.52 23.3253 150.198C23.1649 149.878 22.9827 149.465 22.7788 148.958C22.6534 148.63 22.5627 148.399 22.5067 148.264C22.4364 148.12 22.3449 147.938 22.2322 147.718C22.1079 147.501 21.9939 147.355 21.8905 147.281C21.787 147.207 21.6557 147.145 21.4965 147.097C21.3374 147.048 21.1643 147.045 20.9774 147.089C20.4635 147.21 20.1143 147.484 19.9298 147.909C19.7309 148.326 19.7061 148.856 19.8553 149.499C20.1946 150.96 21.0354 151.557 22.3779 151.29L22.6954 152.658C21.7672 152.852 20.9522 152.711 20.2505 152.235C19.546 151.748 19.0594 150.925 18.7907 149.768C18.2723 147.536 18.9708 146.194 20.8864 145.742L25.1965 144.727C25.5936 144.634 25.859 144.503 25.9927 144.336C26.1236 144.157 26.1048 143.891 25.9362 143.536L25.924 143.483L26.9577 143.24C27.1054 143.451 27.2118 143.698 27.277 143.978ZM27.2717 148.492C27.0681 147.615 26.6596 146.996 26.046 146.635C25.4208 146.277 24.8045 146.169 24.1971 146.312L22.6553 146.676C23.0244 147.045 23.4065 147.682 23.8015 148.588C23.953 148.922 24.0752 149.183 24.1681 149.371C24.2493 149.561 24.3723 149.772 24.5371 150.005C24.6902 150.24 24.8402 150.408 24.9868 150.509C25.1335 150.61 25.3169 150.684 25.5372 150.731C25.7458 150.78 25.9786 150.775 26.2356 150.714C27.2167 150.483 27.5621 149.742 27.2717 148.492Z" fill="#D9D9D9"/>
<path d="M25.3925 126.614C25.4124 127.85 24.9303 128.836 23.946 129.572L23.9466 129.608L25.1704 129.588L25.1939 131.046L12.3256 131.256L12.3021 129.799L17.1975 129.718L17.1969 129.682C16.1529 128.943 15.6209 127.956 15.601 126.72C15.5816 125.52 16.0041 124.553 16.8684 123.819C17.7206 123.085 18.9087 122.706 20.4325 122.681C21.9323 122.656 23.1319 122.997 24.0314 123.702C24.9187 124.395 25.3724 125.366 25.3925 126.614ZM24.1704 126.742C24.1565 125.878 23.816 125.23 23.1489 124.796C22.4699 124.364 21.5784 124.156 20.4745 124.174C19.3827 124.192 18.5044 124.428 17.8396 124.883C17.1629 125.338 16.8314 125.992 16.8451 126.844C16.8608 127.816 17.2206 128.548 17.9247 129.04C18.6167 129.533 19.4966 129.771 20.5645 129.753C21.6563 129.736 22.5342 129.469 23.198 128.954C23.8617 128.439 24.1859 127.702 24.1704 126.742Z" fill="#D9D9D9"/>
<path d="M25.9773 110.757L13.2629 108.761L13.4858 107.321L26.2001 109.316L25.9773 110.757Z" fill="#D9D9D9"/>
<path d="M29.7876 94.9487C29.3493 96.2573 28.5632 97.1498 27.4291 97.6263C26.2875 98.0875 25.0521 98.0923 23.7227 97.6406C22.4161 97.1966 21.4492 96.4372 20.8222 95.3623C20.1875 94.2722 20.076 93.1126 20.4876 91.8837C20.9221 90.5866 21.712 89.7397 22.8572 89.3431C23.9911 88.9426 25.308 88.9971 26.8078 89.5067L24.521 96.334C25.4718 96.5936 26.3245 96.5792 27.0792 96.2907C27.8264 95.9869 28.3429 95.4083 28.6287 94.5549C29.0708 93.235 28.7411 92.2168 27.6396 91.5004L28.0913 90.152C28.9657 90.6772 29.5537 91.3586 29.8553 92.1962C30.1456 93.0299 30.123 93.9474 29.7876 94.9487ZM22.9457 90.6658C22.2971 90.9397 21.8414 91.4692 21.5784 92.2544C21.3154 93.0395 21.3671 93.7541 21.7335 94.3982C22.1037 95.031 22.6902 95.5471 23.4928 95.9466L25.2708 90.6384C24.3693 90.3828 23.5943 90.3919 22.9457 90.6658Z" fill="#D9D9D9"/>
<path d="M34.3271 66.1195L33.3655 65.4219L34.109 64.3824L32.8998 63.505C32.2782 63.054 31.9536 62.559 31.9259 62.0201C31.8886 61.4741 32.1038 60.8741 32.5715 60.2202C32.7041 60.0347 32.857 59.8417 33.03 59.641L34.0352 60.3704C33.9278 60.5 33.8322 60.6234 33.7484 60.7405C33.4762 61.1212 33.3425 61.4319 33.3473 61.6726C33.3522 61.9133 33.5051 62.1429 33.8062 62.3614L34.9572 63.1965L35.9624 61.791L36.924 62.4886L35.9188 63.8942L42.4894 68.6616L41.6412 69.8475L35.0706 65.0801L34.3271 66.1195Z" fill="#D9D9D9"/>
<path d="M54.8823 52.6735C54.9371 53.9184 54.4754 55.0105 53.4973 55.9497C52.5192 56.8888 51.4098 57.3052 50.1691 57.1989C48.9371 57.0843 47.8427 56.5215 46.8858 55.5105C45.9289 54.4995 45.4231 53.3715 45.3683 52.1266C45.3222 50.8733 45.7881 49.7771 46.7663 48.8379C47.7444 47.8988 48.8495 47.4865 50.0815 47.6012C51.3135 47.7158 52.4079 48.2786 53.3648 49.2896C54.3216 50.3006 54.8275 51.4285 54.8823 52.6735ZM50.3406 55.8614C51.1917 55.9925 51.9634 55.7256 52.6559 55.0607C53.3484 54.3958 53.6456 53.6363 53.5477 52.7821C53.4414 51.9193 53.0213 51.1 52.2871 50.3243C51.5447 49.54 50.748 49.0822 49.897 48.9511C49.0463 48.803 48.2791 49.0573 47.5953 49.7138C46.9028 50.3787 46.6053 51.1468 46.7029 52.0179C46.8091 52.8808 47.2293 53.7001 47.9635 54.4757C48.6976 55.2514 49.49 55.7133 50.3406 55.8614Z" fill="#D9D9D9"/>
<path d="M62.0053 36.6201L62.8356 37.9266L62.8658 37.9071C62.8541 37.3293 62.9695 36.7837 63.2121 36.2705C63.4482 35.7471 63.8133 35.3261 64.3075 35.0075C64.4891 34.8904 64.6748 34.8135 64.8647 34.7768L65.6177 35.9618L65.5723 35.991C65.3889 36.0379 65.1912 36.1296 64.9794 36.2662C64.3541 36.6693 63.9611 37.2367 63.8005 37.9684C63.6335 38.69 63.7752 39.4053 64.2258 40.1142L66.9964 44.4744L65.771 45.2644L60.7799 37.41L62.0053 36.6201Z" fill="#D9D9D9"/>
<path d="M86.9715 25.4868L86.632 24.3483L87.8552 23.9783L87.4283 22.5466C87.2088 21.8106 87.2521 21.2208 87.558 20.7772C87.8606 20.3221 88.3967 19.9781 89.1662 19.7453C89.3845 19.6793 89.6233 19.6196 89.8829 19.5661L90.2378 20.7563C90.0736 20.7935 89.9226 20.8329 89.7847 20.8746C89.3368 21.0101 89.0415 21.1747 88.8989 21.3683C88.7562 21.5618 88.7381 21.8369 88.8444 22.1934L89.2508 23.5561L90.9047 23.0557L91.2442 24.1942L89.5903 24.6945L91.9102 32.474L90.5146 32.8962L88.1947 25.1167L86.9715 25.4868Z" fill="#D9D9D9"/>
<path d="M104.572 20.0189L104.768 21.5544L104.804 21.5498C105.039 21.0232 105.376 20.5802 105.814 20.2209C106.25 19.8496 106.76 19.6262 107.343 19.5505C107.557 19.5227 107.758 19.533 107.946 19.5812L108.124 20.9739L108.07 20.9808C107.884 20.9445 107.666 20.9425 107.416 20.9749C106.679 21.0707 106.081 21.4143 105.625 22.006C105.167 22.5858 104.991 23.2923 105.097 24.1255L105.753 29.2497L104.307 29.4373L103.126 20.2065L104.572 20.0189Z" fill="#D9D9D9"/>
<path d="M124.505 28.5374C123.128 28.4484 122.062 27.9166 121.306 26.9418C120.563 25.9559 120.237 24.7624 120.326 23.3612C120.414 21.984 120.894 20.8546 121.768 19.9731C122.655 19.0804 123.745 18.6758 125.038 18.7594C126.403 18.8476 127.426 19.3947 128.108 20.4007C128.79 21.3948 129.081 22.6822 128.98 24.263L121.795 23.7988C121.792 24.7847 122.029 25.6056 122.504 26.2616C122.992 26.9064 123.685 27.2579 124.583 27.3159C125.972 27.4056 126.869 26.8262 127.273 25.5777L128.692 25.6693C128.413 26.6494 127.909 27.3924 127.179 27.8985C126.45 28.3925 125.559 28.6055 124.505 28.5374ZM126.854 20.8248C126.421 20.2677 125.791 19.9624 124.965 19.9091C124.138 19.8557 123.462 20.0886 122.936 20.6077C122.422 21.1277 122.077 21.8269 121.901 22.7054L127.487 23.0662C127.499 22.129 127.288 21.3819 126.854 20.8248Z" fill="#D9D9D9"/>
<path d="M144.461 31.6718C143.134 31.2911 142.204 30.5437 141.672 29.4295C141.154 28.3071 141.086 27.0704 141.468 25.7194C141.843 24.3915 142.551 23.3897 143.59 22.7142C144.644 22.0303 145.794 21.8672 147.039 22.2246C148.354 22.602 149.239 23.3551 149.693 24.4841C150.15 25.6015 150.163 26.9223 149.731 28.4465L142.811 26.4606C142.601 27.424 142.659 28.277 142.985 29.0198C143.326 29.7543 143.929 30.2457 144.794 30.494C146.132 30.8779 147.13 30.5026 147.787 29.368L149.154 29.7602C148.675 30.659 148.026 31.278 147.207 31.6172C146.391 31.9448 145.476 31.963 144.461 31.6718ZM148.379 24.6314C148.073 23.9943 147.522 23.5615 146.726 23.3331C145.93 23.1048 145.22 23.1883 144.597 23.5837C143.986 23.9825 143.501 24.5926 143.144 25.4139L148.525 26.958C148.734 26.0441 148.685 25.2686 148.379 24.6314Z" fill="#D9D9D9"/>
<path d="M159.769 36.9851L165.316 25.3716L166.628 26.0073L161.081 37.6208L159.769 36.9851Z" fill="#D9D9D9"/>
<path d="M176.496 47.0848C175.746 46.546 175.579 45.8575 175.995 45.0192L175.981 45.0087C174.788 45.3642 173.666 45.164 172.613 44.4083C171.862 43.8695 171.376 43.2475 171.155 42.5421C170.934 41.8368 171.066 41.1413 171.551 40.4556C171.801 40.1029 172.069 39.8377 172.357 39.66C172.661 39.4795 172.956 39.3738 173.242 39.3431C173.536 39.3025 173.875 39.3319 174.26 39.4312C174.662 39.5278 175.026 39.6482 175.35 39.7923C175.681 39.9267 176.09 40.117 176.578 40.3633C176.888 40.527 177.109 40.6411 177.239 40.7055C177.387 40.767 177.576 40.8433 177.805 40.9343C178.042 41.0155 178.223 41.0497 178.35 41.0372C178.476 41.0246 178.615 40.984 178.767 40.9154C178.918 40.8468 179.049 40.7342 179.16 40.5774C179.465 40.1464 179.546 39.7098 179.403 39.2676C179.277 38.8226 178.946 38.4076 178.41 38.0228C177.191 37.1481 176.168 37.2551 175.338 38.3439L174.198 37.5252C174.765 36.7653 175.468 36.3322 176.308 36.2259C177.157 36.1265 178.064 36.4232 179.03 37.1159C180.892 38.4524 181.254 39.9239 180.117 41.5305L177.56 45.1452C177.324 45.4783 177.212 45.7518 177.222 45.966C177.242 46.1871 177.432 46.3753 177.792 46.5306L177.836 46.5621L177.223 47.4291C176.972 47.3675 176.73 47.2527 176.496 47.0848ZM173.521 43.6862C174.252 44.211 174.966 44.4063 175.664 44.2719C176.369 44.1278 176.901 43.801 177.262 43.2916L178.177 41.9986C177.657 41.965 176.95 41.7383 176.056 41.3184C175.722 41.1673 175.458 41.0518 175.265 40.972C175.078 40.8825 174.847 40.8048 174.57 40.739C174.3 40.6634 174.077 40.6362 173.9 40.6571C173.724 40.6781 173.537 40.7439 173.342 40.8545C173.153 40.9552 172.982 41.1133 172.83 41.3289C172.247 42.1517 172.478 42.9375 173.521 43.6862Z" fill="#D9D9D9"/>
<path d="M194.354 50.2052L193.451 51.0321L193.475 51.0588C194.666 50.9446 195.679 51.3506 196.516 52.2768C197.175 53.007 197.5 53.7512 197.489 54.5095C197.479 55.2677 197.12 55.9711 196.412 56.6196L191.594 61.0337L190.617 59.9517L195.342 55.6227C195.784 55.2174 196 54.7673 195.99 54.2723C195.988 53.7693 195.766 53.2728 195.324 52.783C194.825 52.2309 194.238 51.9388 193.562 51.9069C192.887 51.8749 192.27 52.1143 191.713 52.625L187.492 56.4919L186.515 55.4099L193.376 49.1232L194.354 50.2052Z" fill="#D9D9D9"/>
<path d="M201.156 74.7473C200.481 73.5716 200.341 72.3891 200.737 71.1998C201.139 70.0209 201.941 69.081 203.144 68.38C204.347 67.679 205.556 67.4465 206.771 67.6827C207.992 67.9293 208.94 68.6404 209.616 69.8161C210.16 70.763 210.351 71.6862 210.19 72.5858C210.039 73.4793 209.575 74.2497 208.798 74.8969L208.063 73.6172C208.559 73.2032 208.855 72.7183 208.95 72.1625C209.046 71.6066 208.921 71.0269 208.574 70.4235C208.096 69.5911 207.424 69.1213 206.56 69.0139C205.702 68.917 204.811 69.1375 203.888 69.6754C202.966 70.2132 202.332 70.8811 201.988 71.679C201.66 72.4812 201.735 73.2986 202.214 74.1309C202.584 74.776 203.051 75.1914 203.615 75.3769C204.188 75.5564 204.806 75.4879 205.469 75.1712L206.186 76.4198C205.174 76.8986 204.225 76.9934 203.339 76.7041C202.464 76.4089 201.736 75.7566 201.156 74.7473Z" fill="#D9D9D9"/>
<path d="M209.634 93.1838C209.215 91.8692 209.32 90.6808 209.951 89.6188C210.597 88.5644 211.588 87.821 212.923 87.3883C214.236 86.9631 215.462 86.995 216.601 87.4839C217.754 87.9806 218.528 88.8462 218.923 90.0808C219.339 91.384 219.203 92.5379 218.516 93.5424C217.841 94.5433 216.749 95.2878 215.242 95.7758L213.052 88.917C212.135 89.2773 211.457 89.7994 211.021 90.4832C210.599 91.1748 210.525 91.9493 210.799 92.8066C211.222 94.1327 212.088 94.7541 213.397 94.6708L213.829 96.0254C212.816 96.1265 211.941 95.9306 211.204 95.4377C210.479 94.9411 209.956 94.1898 209.634 93.1838ZM217.664 92.5317C218.024 91.9232 218.078 91.2245 217.827 90.4358C217.575 89.647 217.111 89.1033 216.437 88.8047C215.766 88.5175 214.989 88.4536 214.108 88.6129L215.811 93.9457C216.687 93.6116 217.304 93.1402 217.664 92.5317Z" fill="#D9D9D9"/>
<path d="M211.999 119.82L224.291 120.021L224.268 121.478L222.954 121.457L222.953 121.493C223.961 122.266 224.455 123.27 224.435 124.506C224.415 125.705 223.962 126.664 223.074 127.382C222.199 128.1 220.999 128.446 219.475 128.421C217.975 128.397 216.787 128.017 215.911 127.283C215.047 126.548 214.625 125.551 214.645 124.292C214.665 123.044 215.137 122.073 216.06 121.38L216.061 121.344L211.975 121.277L211.999 119.82ZM215.871 124.204C215.857 125.067 216.182 125.733 216.847 126.2C217.511 126.667 218.389 126.909 219.481 126.927C220.573 126.945 221.459 126.731 222.138 126.286C222.829 125.842 223.182 125.193 223.195 124.341C223.211 123.369 222.875 122.626 222.187 122.111C221.511 121.595 220.64 121.329 219.572 121.312C218.48 121.294 217.594 121.519 216.914 121.988C216.235 122.457 215.887 123.196 215.871 124.204Z" fill="#D9D9D9"/>
<path d="M222.405 143.511L220.891 143.189L220.884 143.224C221.304 143.62 221.611 144.084 221.806 144.616C222.012 145.151 222.055 145.706 221.934 146.282C221.89 146.493 221.814 146.679 221.706 146.84L220.333 146.548L220.344 146.495C220.44 146.331 220.514 146.126 220.565 145.88C220.718 145.152 220.591 144.474 220.183 143.847C219.787 143.223 219.178 142.824 218.356 142.649L213.304 141.572L213.603 140.146L222.705 142.084L222.405 143.511Z" fill="#D9D9D9"/>
<path d="M207.833 163.162C207.288 162.042 207.278 160.858 207.804 159.608C208.329 158.358 209.183 157.535 210.365 157.138C211.542 156.753 212.771 156.834 214.051 157.38C215.332 157.926 216.244 158.759 216.789 159.878C217.329 161.009 217.337 162.199 216.811 163.449C216.286 164.699 215.434 165.517 214.257 165.902C213.08 166.287 211.851 166.206 210.571 165.66C209.29 165.114 208.378 164.281 207.833 163.162ZM210.739 158.433C209.905 158.651 209.302 159.203 208.93 160.088C208.558 160.973 208.586 161.787 209.016 162.531C209.456 163.28 210.167 163.864 211.15 164.283C212.143 164.706 213.057 164.809 213.89 164.591C214.731 164.388 215.334 163.85 215.702 162.976C216.074 162.091 216.042 161.268 215.606 160.509C215.166 159.76 214.455 159.176 213.472 158.757C212.49 158.338 211.579 158.23 210.739 158.433Z" fill="#D9D9D9"/>
<path d="M198.892 172.223C199.015 172.031 199.18 171.817 199.389 171.58L200.386 172.226L200.366 172.256C200.239 172.388 200.134 172.52 200.05 172.651C199.708 173.187 199.788 173.619 200.292 173.945L208.557 179.296L207.772 180.525L199.447 175.135C198.782 174.704 198.434 174.257 198.403 173.793C198.361 173.323 198.524 172.8 198.892 172.223ZM210.038 180.255L211.548 181.233L210.764 182.462L209.253 181.484L210.038 180.255Z" fill="#D9D9D9"/>
<path d="M190.876 187.205C191.805 186.184 192.884 185.686 194.112 185.709C195.341 185.75 196.471 186.247 197.503 187.199C198.516 188.136 199.092 189.223 199.23 190.461C199.369 191.717 199.003 192.824 198.13 193.782C197.209 194.794 196.146 195.249 194.94 195.148C193.742 195.054 192.562 194.471 191.398 193.396L196.245 188.072C195.482 187.449 194.698 187.116 193.892 187.074C193.087 187.049 192.381 187.37 191.776 188.035C190.838 189.064 190.728 190.13 191.444 191.233L190.487 192.285C189.901 191.449 189.639 190.587 189.702 189.698C189.774 188.816 190.165 187.986 190.876 187.205ZM195.393 193.9C196.096 193.913 196.726 193.613 197.284 193C197.841 192.388 198.083 191.713 198.009 190.975C197.926 190.245 197.599 189.535 197.028 188.843L193.259 192.983C193.979 193.582 194.69 193.888 195.393 193.9Z" fill="#D9D9D9"/>
<path d="M175.96 200.919C177.064 200.133 178.223 199.883 179.435 200.169C180.637 200.462 181.638 201.178 182.438 202.318C183.237 203.457 183.573 204.647 183.446 205.886C183.309 207.132 182.688 208.149 181.583 208.935C180.694 209.568 179.796 209.846 178.892 209.768C177.994 209.7 177.19 209.307 176.482 208.589L177.684 207.733C178.137 208.191 178.643 208.442 179.202 208.487C179.761 208.531 180.324 208.351 180.891 207.948C181.673 207.391 182.079 206.675 182.11 205.799C182.13 204.93 181.834 204.058 181.221 203.184C180.607 202.31 179.89 201.737 179.07 201.467C178.247 201.213 177.445 201.364 176.663 201.921C176.056 202.352 175.686 202.859 175.552 203.44C175.424 204.032 175.546 204.645 175.918 205.279L174.745 206.114C174.182 205.144 174.005 204.203 174.214 203.288C174.429 202.384 175.011 201.594 175.96 200.919Z" fill="#D9D9D9"/>
<path d="M166.184 216.791L166.677 217.872L165.451 218.438L166.668 221.108L165.344 221.72L164.128 219.05L162.494 219.805L162.001 218.724L163.635 217.969L161.128 212.465C160.89 211.941 160.487 211.809 159.921 212.071C159.681 212.182 159.464 212.328 159.27 212.51L159.221 212.533L158.699 211.386C159.024 211.144 159.36 210.942 159.709 210.781C160.951 210.207 161.82 210.466 162.318 211.558L164.959 217.357L166.184 216.791Z" fill="#D9D9D9"/>
<defs>
<filter id="filter0_d_40_186" x="0" y="0" width="248" height="248" filterUnits="userSpaceOnUse" color-interpolation-filters="sRGB">
<feFlood flood-opacity="0" result="BackgroundImageFix"/>
<feColorMatrix in="SourceAlpha" type="matrix" values="0 0 0 0 0 0 0 0 0 0 0 0 0 0 0 0 0 0 127 0" result="hardAlpha"/>
<feOffset dx="5" dy="5"/>
<feGaussianBlur stdDeviation="2"/>
<feComposite in2="hardAlpha" operator="out"/>
<feColorMatrix type="matrix" values="0 0 0 0 0 0 0 0 0 0 0 0 0 0 0 0 0 0 0.25 0"/>
<feBlend mode="normal" in2="BackgroundImageFix" result="effect1_dropShadow_40_186"/>
<feBlend mode="normal" in="SourceGraphic" in2="effect1_dropShadow_40_186" result="shape"/>
</filter>
<filter id="filter1_dd_40_186" x="12" y="12" width="216" height="216" filterUnits="userSpaceOnUse" color-interpolation-filters="sRGB">
<feFlood flood-opacity="0" result="BackgroundImageFix"/>
<feColorMatrix in="SourceAlpha" type="matrix" values="0 0 0 0 0 0 0 0 0 0 0 0 0 0 0 0 0 0 127 0" result="hardAlpha"/>
<feOffset dx="-5" dy="-5"/>
<feGaussianBlur stdDeviation="10"/>
<feComposite in2="hardAlpha" operator="out"/>
<feColorMatrix type="matrix" values="0 0 0 0 0 0 0 0 0 0 0 0 0 0 0 0 0 0 0.25 0"/>
<feBlend mode="normal" in2="BackgroundImageFix" result="effect1_dropShadow_40_186"/>
<feColorMatrix in="SourceAlpha" type="matrix" values="0 0 0 0 0 0 0 0 0 0 0 0 0 0 0 0 0 0 127 0" result="hardAlpha"/>
<feOffset dx="5" dy="5"/>
<feGaussianBlur stdDeviation="10"/>
<feComposite in2="hardAlpha" operator="out"/>
<feColorMatrix type="matrix" values="0 0 0 0 0.882353 0 0 0 0 0.87451 0 0 0 0 0.866667 0 0 0 1 0"/>
<feBlend mode="normal" in2="effect1_dropShadow_40_186" result="effect2_dropShadow_40_186"/>
<feBlend mode="normal" in="SourceGraphic" in2="effect2_dropShadow_40_186" result="shape"/>
</filter>
</defs>
</svg>
