<svg width="160" height="160" viewBox="0 0 160 160" fill="none" xmlns="http://www.w3.org/2000/svg">
<circle cx="80" cy="80" r="80" fill="white"/>
<path d="M54.156 74.392C51.468 74.392 49.396 73.7293 47.94 72.404C46.5027 71.0787 45.728 69.352 45.616 67.224H48.08C48.416 70.6587 50.4787 72.376 54.268 72.376C55.7053 72.376 56.8533 72.0587 57.712 71.424C58.5893 70.7707 59.028 69.8373 59.028 68.624C59.028 68.0827 58.9253 67.6067 58.72 67.196C58.5147 66.7853 58.2627 66.4493 57.964 66.188C57.684 65.9267 57.2547 65.684 56.676 65.46C56.0973 65.236 55.556 65.0587 55.052 64.928C54.5667 64.7973 53.8947 64.6387 53.036 64.452C52.0093 64.228 51.16 64.004 50.488 63.78C49.816 63.5373 49.144 63.2107 48.472 62.8C47.8 62.3893 47.296 61.8667 46.96 61.232C46.6427 60.5787 46.484 59.7947 46.484 58.88C46.484 57.2373 47.1 55.9493 48.332 55.016C49.5827 54.064 51.2347 53.588 53.288 53.588C57.7867 53.588 60.316 55.6693 60.876 59.832H58.496C58.3093 58.4133 57.7773 57.3493 56.9 56.64C56.0227 55.912 54.8373 55.548 53.344 55.548C51.9627 55.548 50.8613 55.828 50.04 56.388C49.2373 56.948 48.836 57.7413 48.836 58.768C48.836 59.216 48.92 59.6173 49.088 59.972C49.2747 60.308 49.508 60.5973 49.788 60.84C50.0867 61.064 50.4693 61.2693 50.936 61.456C51.4213 61.6427 51.8973 61.8013 52.364 61.932C52.8307 62.044 53.4 62.1653 54.072 62.296C55.0053 62.4827 55.7707 62.66 56.368 62.828C56.9653 62.9773 57.628 63.2107 58.356 63.528C59.084 63.8453 59.644 64.2093 60.036 64.62C60.4467 65.0307 60.792 65.572 61.072 66.244C61.3707 66.8973 61.52 67.6627 61.52 68.54C61.52 70.3693 60.8387 71.8067 59.476 72.852C58.132 73.8787 56.3587 74.392 54.156 74.392ZM70.2553 74.392C68.146 74.392 66.4473 73.664 65.1593 72.208C63.89 70.752 63.2553 68.9413 63.2553 66.776C63.2553 64.6107 63.89 62.8 65.1593 61.344C66.4473 59.888 68.146 59.16 70.2553 59.16C71.954 59.16 73.3447 59.6173 74.4273 60.532C75.51 61.428 76.182 62.6507 76.4433 64.2H74.1473C73.9793 63.2107 73.5593 62.436 72.8873 61.876C72.2153 61.316 71.338 61.036 70.2553 61.036C68.762 61.036 67.6047 61.5773 66.7833 62.66C65.9807 63.7427 65.5793 65.1147 65.5793 66.776C65.5793 68.4373 65.9807 69.8093 66.7833 70.892C67.6047 71.956 68.762 72.488 70.2553 72.488C71.4127 72.488 72.3367 72.18 73.0273 71.564C73.718 70.9293 74.11 70.0427 74.2033 68.904H76.4433C76.294 70.64 75.678 71.9933 74.5953 72.964C73.5127 73.916 72.066 74.392 70.2553 74.392ZM80.8549 59.524V61.932H80.9109C81.3775 61.1667 81.9842 60.5507 82.7309 60.084C83.4775 59.5987 84.3082 59.356 85.2229 59.356C85.5589 59.356 85.8669 59.412 86.1469 59.524V61.708H86.0629C85.7829 61.6147 85.4469 61.568 85.0549 61.568C83.8975 61.568 82.9082 61.9787 82.0869 62.8C81.2655 63.6027 80.8549 64.6573 80.8549 65.964V74H78.5869V59.524H80.8549ZM98.8937 72.208C97.6243 73.664 95.935 74.392 93.8257 74.392C91.7163 74.392 90.0177 73.664 88.7297 72.208C87.4603 70.752 86.8257 68.9413 86.8257 66.776C86.8257 64.6107 87.4603 62.8 88.7297 61.344C90.0177 59.888 91.7163 59.16 93.8257 59.16C95.935 59.16 97.6243 59.888 98.8937 61.344C100.163 62.8 100.798 64.6107 100.798 66.776C100.798 68.9413 100.163 70.752 98.8937 72.208ZM90.3537 70.892C91.175 71.956 92.3323 72.488 93.8257 72.488C95.319 72.488 96.467 71.956 97.2697 70.892C98.0723 69.8093 98.4737 68.4373 98.4737 66.776C98.4737 65.096 98.063 63.724 97.2417 62.66C96.439 61.5773 95.3003 61.036 93.8257 61.036C92.3323 61.036 91.175 61.5773 90.3537 62.66C89.551 63.7427 89.1497 65.1147 89.1497 66.776C89.1497 68.4373 89.551 69.8093 90.3537 70.892ZM103.144 74V53.98H105.412V74H103.144ZM108.667 74V53.98H110.935V74H108.667ZM46.876 108V87.98H54.156C57.0867 87.98 59.2987 88.8853 60.792 90.696C62.2853 92.5067 63.032 94.9613 63.032 98.06C63.032 101.14 62.2573 103.567 60.708 105.34C59.1587 107.113 56.9093 108 53.96 108H46.876ZM49.396 105.788H53.876C58.2627 105.788 60.456 103.212 60.456 98.06C60.456 92.796 58.328 90.164 54.072 90.164H49.396V105.788ZM76.9366 106.208C75.6673 107.664 73.978 108.392 71.8686 108.392C69.7593 108.392 68.0606 107.664 66.7726 106.208C65.5033 104.752 64.8686 102.941 64.8686 100.776C64.8686 98.6107 65.5033 96.8 66.7726 95.344C68.0606 93.888 69.7593 93.16 71.8686 93.16C73.978 93.16 75.6673 93.888 76.9366 95.344C78.206 96.8 78.8406 98.6107 78.8406 100.776C78.8406 102.941 78.206 104.752 76.9366 106.208ZM68.3966 104.892C69.218 105.956 70.3753 106.488 71.8686 106.488C73.362 106.488 74.51 105.956 75.3126 104.892C76.1153 103.809 76.5166 102.437 76.5166 100.776C76.5166 99.096 76.106 97.724 75.2846 96.66C74.482 95.5773 73.3433 95.036 71.8686 95.036C70.3753 95.036 69.218 95.5773 68.3966 96.66C67.594 97.7427 67.1926 99.1147 67.1926 100.776C67.1926 102.437 67.594 103.809 68.3966 104.892ZM83.9931 108L79.4011 93.524H81.8371L84.3851 102.456L85.1691 105.564H85.2251C85.5051 104.295 85.7477 103.277 85.9531 102.512L88.3891 93.524H90.7691L93.1211 102.512L93.8211 105.564H93.8771C94.1757 104.295 94.4464 103.259 94.6891 102.456L97.3771 93.524H99.7291L94.9971 108H92.6731L90.2651 99.236L89.5651 96.212H89.5091C89.2477 97.4253 89.0051 98.4333 88.7811 99.236L86.3451 108H83.9931ZM103.66 93.524V95.428H103.716C104.836 93.9347 106.366 93.188 108.308 93.188C109.838 93.188 111.033 93.5893 111.892 94.392C112.75 95.1947 113.18 96.3427 113.18 97.836V108H110.912V98.032C110.912 97.0987 110.622 96.38 110.044 95.876C109.465 95.3533 108.662 95.092 107.636 95.092C106.478 95.092 105.526 95.4653 104.78 96.212C104.033 96.9587 103.66 97.92 103.66 99.096V108H101.392V93.524H103.66Z" fill="#D9D9D9"/>
</svg>
